<svg id="e0nZat5hRHE1" xmlns="http://www.w3.org/2000/svg" xmlns:xlink="http://www.w3.org/1999/xlink" viewBox="0 0 50 50" shape-rendering="geometricPrecision" text-rendering="geometricPrecision"><path d="M46.2988,0L3.69141,0C1.65039,0,0,1.61133,0,3.60352v42.78318C0,48.3789,1.65039,50,3.69141,50h42.60739C48.3398,50,50,48.3789,50,46.3965v-42.79298C50,1.61133,48.3398,0,46.2988,0ZM14.834,42.6074h-7.42189v-23.8672h7.42189v23.8672ZM11.123,15.4883c-2.38277,0-4.30659-1.9238-4.30659-4.2969s1.92382-4.29687,4.30659-4.29687c2.3731,0,4.2969,1.92383,4.2969,4.29687c0,2.3633-1.9238,4.2969-4.2969,4.2969ZM42.6074,42.6074h-7.4121v-11.6015c0-2.7637-.0488-6.3282-3.8574-6.3282-3.8574,0-4.4434,3.0176-4.4434,6.1328v11.7969h-7.4023v-23.8672h7.1094v3.2618h.0976c.9863-1.875,3.4082-3.8575,7.0117-3.8575c7.5098,0,8.8965,4.9414,8.8965,11.3672v13.0957v0Z" fill="#6b7280"/></svg>
