<svg id="ePdbBUxpVAh1" xmlns="http://www.w3.org/2000/svg" xmlns:xlink="http://www.w3.org/1999/xlink" viewBox="0 0 50 50" shape-rendering="geometricPrecision" text-rendering="geometricPrecision"><g clip-path="url(#ePdbBUxpVAh5)"><g><path d="M50,25c0,13.8071-11.1929,25-25,25s-25-11.1929-25-25s11.1929-25,25-25s25,11.1929,25,25ZM25.8959,18.4561c-2.4316,1.0114-7.2914,3.1047-14.5795,6.28-1.1834.4706-1.80336.931-1.8598,1.3812-.09538.7608.8574,1.0604,2.1548,1.4684.1765.0555.3593.113.5468.1739c1.2765.4149,2.9935.9003,3.8861.9196.8097.0175,1.7135-.3163,2.7112-1.0014c6.8094-4.5965,10.3245-6.9199,10.5451-6.97.1557-.0353.3715-.0797.5177.0502s.1318.376.1163.442c-.0944.4024-3.8343,3.8794-5.7698,5.6787-.6033.5609-1.0313.9588-1.1188,1.0497-.196.2036-.3957.3961-.5877.5812-1.1859,1.1432-2.0751,2.0004.0492,3.4004c1.0209.6727,1.8378,1.229,2.6528,1.784.8901.6062,1.7778,1.2107,2.9264,1.9636.2926.1919.5721.3911.8443.5852c1.0358.7384,1.9664,1.4018,3.1161,1.296.668-.0615,1.358-.6896,1.7085-2.5631.8282-4.4275,2.4561-14.0206,2.8324-17.9737.0329-.3463-.0085-.7896-.0418-.9841-.0333-.1946-.1029-.4718-.3559-.6771-.2995-.243-.7619-.2943-.9687-.2906-.9403.0165-2.3829.5182-9.3257,3.4059Z" clip-rule="evenodd" fill="#6b7280" fill-rule="evenodd"/></g><clipPath id="ePdbBUxpVAh5"><rect width="50" height="50" rx="0" ry="0" fill="#fff"/></clipPath></g></svg>
