<svg id="ei5TsXhClQx1" xmlns="http://www.w3.org/2000/svg" xmlns:xlink="http://www.w3.org/1999/xlink" viewBox="0 0 50 50" shape-rendering="geometricPrecision" text-rendering="geometricPrecision"><path d="M44.1855,13.3681h1.6478v-4.8612h-15.5838L25.0707,27.604h-.1417L19.7972,8.5069h-15.63057v4.8611h1.60077c.37006.0602.7134.2305.98527.4887s.45969.5922.53896.9587v20.4798c-.08417.3533-.27607.6718-.54914.9112s-.61382.3882-.97509.4255h-1.60077v4.8612h12.49997v-4.8612h-3.125v-21.5277h.1824l7.2033,26.3889h5.65l7.2974-26.3889h.1533v21.5277h-3.1252v4.8612h14.9305v-4.8612h-1.6478c-.353-.0459-.6836-.1985-.9476-.4374s-.4487-.5526-.5296-.8993v-20.4797c.0765-.3598.2575-.689.5203-.9465s.5956-.4317.9569-.5009v0Z" fill="#6b7280"/></svg>
