<svg id="esqgl4DGKoE1" xmlns="http://www.w3.org/2000/svg" xmlns:xlink="http://www.w3.org/1999/xlink" viewBox="0 0 50 50" shape-rendering="geometricPrecision" text-rendering="geometricPrecision"><path d="M25,4.50195c6.6797,0,7.4707.0293,10.0977.14649c2.4414.10742,3.7597.51758,4.6386.85937c1.1621.44922,2.002.9961,2.8711,1.86524.8789.8789,1.416,1.70898,1.8653,2.87105.3418.8789.7519,2.2071.8593,4.6387.1172,2.6367.1465,3.4277.1465,10.0977c0,6.6797-.0293,7.4707-.1465,10.0976-.1074,2.4414-.5175,3.7598-.8593,4.6387-.4493,1.1621-.9961,2.002-1.8653,2.8711-.8789.8789-1.709,1.416-2.8711,1.8652-.8789.3418-2.207.752-4.6386.8594-2.6368.1172-3.4278.1465-10.0977.1465-6.6797,0-7.4707-.0293-10.0977-.1465-2.4414-.1074-3.7597-.5176-4.6386-.8594-1.16214-.4492-2.00198-.9961-2.87112-1.8652-.87891-.8789-1.41602-1.709-1.86524-2.8711-.34179-.8789-.75195-2.207-.85937-4.6387-.11719-2.6367-.14649-3.4277-.14649-10.0976c0-6.6797.0293-7.4707.14649-10.0977.10742-2.4414.51758-3.7598.85937-4.6387.44922-1.16207.9961-2.00191,1.86524-2.87105.8789-.87891,1.70898-1.41602,2.87112-1.86524.8789-.34179,2.207-.75195,4.6386-.85937c2.627-.11719,3.418-.14649,10.0977-.14649ZM25,0c-6.7871,0-7.6367.029297-10.3027.146484-2.6563.117188-4.4825.546875-6.06449,1.162106-1.65039.64454-3.04687,1.49414-4.43359,2.89063-1.39649,1.38672-2.2461,2.7832-2.89063,4.42383-.615231,1.59175-1.044918,3.40825-1.162106,6.06445C0.029297,17.3633,0,18.2129,0,25s.029297,7.6367.146484,10.3027c.117188,2.6563.546875,4.4825,1.162106,6.0645.64453,1.6504,1.49414,3.0469,2.89063,4.4336c1.38672,1.3867,2.7832,2.2461,4.42383,2.8808c1.59175.6153,3.40815,1.045,6.06445,1.1622c2.666.1171,3.5156.1464,10.3027.1464s7.6368-.0293,10.3028-.1464c2.6562-.1172,4.4824-.5469,6.0644-1.1622c1.6406-.6347,3.0371-1.4941,4.4238-2.8808c1.3868-1.3867,2.2461-2.7832,2.8809-4.4238.6152-1.5918,1.0449-3.4082,1.1621-6.0645.1172-2.666.1465-3.5156.1465-10.3027s-.0293-7.6368-.1465-10.3028c-.1172-2.6562-.5469-4.4824-1.1621-6.06442-.6152-1.66016-1.4648-3.05664-2.8613-4.44336-1.3867-1.38672-2.7832-2.24609-4.4238-2.88086-1.5918-.615235-3.4082-1.044922-6.0645-1.16211C32.6367,0.029297,31.7871,0,25,0Z" fill="#6b7280"/><path d="M25,12.1582c-7.0898,0-12.8418,5.752-12.8418,12.8418s5.752,12.8418,12.8418,12.8418s12.8418-5.752,12.8418-12.8418-5.752-12.8418-12.8418-12.8418Zm0,21.1719c-4.5996,0-8.3301-3.7305-8.3301-8.3301s3.7305-8.3301,8.3301-8.3301s8.3301,3.7305,8.3301,8.3301-3.7305,8.3301-8.3301,8.3301Z" fill="#6b7280"/><path d="M41.3477,11.6503c0,1.6602-1.3477,2.9981-2.9981,2.9981-1.6601,0-2.998-1.3477-2.998-2.9981c0-1.66016,1.3476-2.99805,2.998-2.99805s2.9981,1.34766,2.9981,2.99805Z" fill="#6b7280"/></svg>
