<svg id="eFwZAuxtL1V1" xmlns="http://www.w3.org/2000/svg" xmlns:xlink="http://www.w3.org/1999/xlink" viewBox="0 0 44 50" shape-rendering="geometricPrecision" text-rendering="geometricPrecision"><path d="M17.6002,20.975c-1.425,0-2.55,1.25-2.55,2.775s1.15,2.775,2.55,2.775c1.425,0,2.55-1.25,2.55-2.775.025-1.525-1.125-2.775-2.55-2.775Zm9.125,0c-1.425,0-2.55,1.25-2.55,2.775s1.15,2.775,2.55,2.775c1.425,0,2.55-1.25,2.55-2.775s-1.125-2.775-2.55-2.775Z" fill="#6b7280"/><path d="M38.8751,0L5.37512,0c-2.825,0-5.124998,2.3-5.124998,5.15v33.8c0,2.85,2.299998,5.15,5.124998,5.15h28.34998l-1.325-4.625l3.2,2.975l3.025,2.8L44.0001,50v-44.85c0-2.85-2.3-5.15-5.125-5.15Zm-9.65,32.65c0,0-.9-1.075-1.65-2.025c3.275-.925,4.525-2.975,4.525-2.975-1.025.675-2,1.15-2.875,1.475-1.25.525-2.45.875-3.625,1.075-2.4.45-4.6.325-6.475-.025-1.425-.275-2.65-.675-3.675-1.075-.575-.225-1.2-.5-1.825-.85-.075-.05-.15-.075-.225-.125-.05-.025-.075-.05-.1-.075-.45-.25-.7-.425-.7-.425s1.2,2,4.375,2.95c-.75.95-1.675,2.075-1.675,2.075-5.52498-.175-7.62498-3.8-7.62498-3.8c0-8.05,3.59998-14.575,3.59998-14.575c3.6-2.7,7.025-2.625,7.025-2.625l.25.3c-4.5,1.3-6.575,3.275-6.575,3.275s.55-.3,1.475-.725c2.675-1.175,4.8-1.5,5.675-1.575.15-.025.275-.05.425-.05c1.525-.2,3.25-.25,5.05-.05c2.375.275,4.925.975,7.525,2.4c0,0-1.975-1.875-6.225-3.175l.35-.4c0,0,3.425-.075,7.025,2.625c0,0,3.6,6.525,3.6,14.575c0,0-2.125,3.625-7.65,3.8v0Z" fill="#6b7280"/></svg>
